# xmcd CD database file
#
# Track frame offsets:
#	182
#	17257
#	29795
#	47550
#	64177
#	77700
#	94135
#	109860
#	127105
#	142432
#	158880
#	176730
#	194365
#	212807
#	228815
#	246130
#	261615
#	281575
#	295195
#
# Disc length: 4130 seconds
#
# Revision: 3
# Processed by: cddbd v1.4PL0 Copyright (c) Steve Scherf et al.
# Submitted via: CDex 1.40Beta9
#
DISCID=24102013
DTITLE=Diana Ross - Anthology - Cd2 - 1976 1981
DYEAR=1981
DGENRE=Soul
TTITLE0=Love Hangover
TTITLE1=Gettin' Ready For Love
TTITLE2=Your Love Is So Good For Me
TTITLE3=You Got It
TTITLE4=Top Of The World
TTITLE5=Lovin' Livin' Givin'
TTITLE6=What You Gave Me
TTITLE7=The Boss
TTITLE8=It's My House
TTITLE9=Upside Down
TTITLE10=I'm Coming Out
TTITLE11=It's My Turn
TTITLE12=One More Chance
TTITLE13=Crying My heart Out For You
TTITLE14=My Old Piano
TTITLE15=My Man (Mon Homme)
TTITLE16=Endless Love
TTITLE17=Imagine
TTITLE18=Too Shy To Say
EXTD=YEAR: 1981 ID3G: 42
EXTT0=
EXTT1=
EXTT2=
EXTT3=
EXTT4=
EXTT5=
EXTT6=
EXTT7=
EXTT8=
EXTT9=
EXTT10=
EXTT11=
EXTT12=
EXTT13=
EXTT14=
EXTT15=
EXTT16=
EXTT17=
EXTT18=
PLAYORDER=
